<?xml version="1.0" encoding="utf-8"?>
<!-- Generator: Adobe Illustrator 16.0.3, SVG Export Plug-In . SVG Version: 6.00 Build 0)  -->
<!DOCTYPE svg PUBLIC "-//W3C//DTD SVG 1.1//EN" "http://www.w3.org/Graphics/SVG/1.1/DTD/svg11.dtd">
<svg version="1.1" id="Layer_1" xmlns="http://www.w3.org/2000/svg" xmlns:xlink="http://www.w3.org/1999/xlink" x="0px" y="0px"
	 width="831px" height="194px" viewBox="0 0 831 194" enable-background="new 0 0 831 194" xml:space="preserve">
<g>
	<path fill-rule="evenodd" clip-rule="evenodd" fill="#B3B3B3" d="M46.65,105.802c0.307,14.875,8,33.007,23.932,47.416
		c15.937,14.417,34.752,20.553,56.07,18.483c17.411-1.688,32.421-9.008,44.538-21.551c14.926-15.45,21.835-34.233,20.489-55.671
		c-1.13-17.979-8.188-33.688-21.042-46.33c-16.286-16.022-36.086-23.162-58.918-21.029C78.755,30.199,46.761,58.536,46.65,105.802z"
		/>
	<path fill-rule="evenodd" clip-rule="evenodd" fill="#040328" d="M45.455,105.755c0.11-47.271,32.105-75.606,65.068-78.685
		c22.832-2.133,42.631,5.007,58.918,21.027c12.854,12.643,19.911,28.353,21.042,46.332c1.346,21.439-5.563,40.219-20.488,55.669
		c-12.115,12.547-27.125,19.864-44.54,21.553c-21.317,2.07-40.132-4.068-56.069-18.486
		C53.455,138.759,45.762,120.626,45.455,105.755z M165.31,90.905c0.118,0.058,0.237,0.166,0.348,0.159
		c0.322-0.021,0.646-0.064,0.959-0.143c2.991-0.768,5.919-0.597,8.732,0.711c2.218,1.03,2.5,2.15,0.968,3.989
		c-3.404,4.096-6.884,8.128-10.284,12.229c-3.412,4.114-6.699,8.333-10.163,12.403c-2.143,2.52-4.302,5.101-6.835,7.195
		c-3.084,2.554-6.499,4.738-9.903,6.869c-1.932,1.21-4.046,2.502-6.228,2.871c-5.725,0.976-11.533,1.439-17.302,2.157
		c-8.192,1.019-16.38,2.05-24.561,3.151c-1.352,0.183-3.467,0.39-3.839,1.213c-1.989,4.4-3.565,8.988-5.188,13.544
		c-0.133,0.372,0.311,1.214,0.716,1.473c8.338,5.303,17.556,8.147,27.269,9.476c6.34,0.871,12.707,0.589,18.99-0.437
		c7.442-1.211,14.544-3.584,21.245-7.116c7.635-4.03,14.311-9.327,19.934-15.794c7.475-8.599,12.573-18.488,15.174-29.679
		c1.958-8.418,2.329-16.905,1.189-25.367c-1.358-10.074-4.856-19.477-10.503-28.03c-7.918-12.005-18.432-20.892-31.721-26.376
		c-10.496-4.334-21.448-6.251-32.766-4.805c-5.261,0.672-10.548,1.703-15.608,3.268c-8.447,2.614-15.935,7.088-22.699,12.875
		c-6.387,5.465-11.648,11.807-15.712,19.084c-4.55,8.145-7.316,16.894-8.181,26.261c-0.604,6.558-0.617,13.093,0.595,19.524
		c0.852,4.525,2.265,8.987,3.863,13.316c1.372,3.713,3.364,7.2,5.256,11.153c8.85-12.171,17.357-23.781,31.451-28.671
		c-2.203-3.892-4.417-7.404-6.242-11.108c-3.007-6.104-3.257-12.7-2.716-19.331c0.058-0.71,1.029-1.518,1.772-1.906
		c0.253-0.134,1.169,0.818,1.661,1.384c0.264,0.304,0.294,0.825,0.388,1.261c1.249,5.863,4.448,10.52,9.11,14.13
		c5.837,4.515,12.558,5.774,19.696,4.391c7.038-1.361,12.397-5.227,16.127-11.437c2.735-4.551,3.668-9.414,3.366-14.623
		c-0.251-4.35-1.665-8.313-4.121-11.852c-3.858-5.558-9.169-8.966-15.813-10.375c-0.684-0.143-1.56-1.15-1.628-1.831
		c-0.052-0.499,1-1.499,1.68-1.626c5.147-0.945,10.255-0.359,15.219,1.084c6.657,1.936,12.442,5.371,17.244,10.483
		c6.677,7.113,9.897,15.598,10.285,25.209c0.101,2.507-0.381,5.036-0.58,7.388c2.123-0.354,4.305-0.891,6.509-1.033
		C165.199,87.443,165.812,88.29,165.31,90.905z M100.435,115.39c0.016-0.212,0.035-0.425,0.05-0.636
		c-1.82-1.211-3.528-2.678-5.5-3.54c-1.24-0.542-3.042-0.615-4.307-0.14c-5.145,1.932-9.918,4.73-13.628,8.762
		c-5.012,5.45-9.603,11.289-14.285,17.033c-0.8,0.979-1.719,2.235-0.423,3.632c3.381,3.65,6.647,7.412,10.143,10.943
		c1.738,1.754,3.883,3.105,6.104,4.841c1.11-2.885,2.077-5.42,3.056-7.945c1.494-3.848,1.49-3.791-2.614-4.354
		c-0.621-0.085-1.611-1.006-1.58-1.48c0.048-0.675,0.793-1.73,1.4-1.861c2.208-0.465,4.484-0.611,6.733-0.876
		c3.532-0.418,7.068-0.795,10.594-1.26c3.582-0.474,7.145-1.082,10.729-1.54c3.662-0.468,7.344-0.764,11.001-1.238
		c4.569-0.594,9.111-1.388,13.688-1.915c3.423-0.397,4.821-1.372,5.964-4.565c2.288-6.383,4.637-12.742,6.942-19.118
		c1.31-3.621,2.583-7.257,4-11.241c-0.948,0.166-1.574,0.202-2.155,0.39c-3.377,1.094-5.573,3.383-6.772,6.708
		c-1.962,5.447-3.959,10.882-5.955,16.318c-0.927,2.517-1.473,2.737-3.857,1.833c-8.318-3.156-16.931-4.849-25.82-4.974
		c-5.165-0.074-10.267,0.611-15.222,2.096c-1.204,0.361-2.092,0.079-2.421-0.884c-0.389-1.137,0.053-2.149,1.507-2.409
		c3.421-0.611,6.836-1.268,10.249-1.936C98.861,115.878,99.643,115.608,100.435,115.39z M125.106,48.245
		c-0.102,0.195-0.203,0.39-0.306,0.585c6.731,4.64,10.905,10.939,12.117,18.963c1.227,8.111-0.641,15.585-5.834,21.958
		c-4.821,5.916-11.117,9.667-18.797,10.34c-11.064,0.967-19.953-3.267-26.746-12.67c-0.06,0.936-0.177,1.326-0.094,1.669
		c2.09,8.704,6.786,15.718,14.089,20.834c7.408,5.189,15.744,6.949,24.679,5.684c1.89-0.271,3.8-0.787,5.559-1.524
		c3.632-1.52,5.185-4.764,6.271-8.28c1.932-6.259,6.072-9.599,12.583-10.414c0.867-0.107,2.04-1.079,2.337-1.914
		c2.491-7.011,2.87-14.188,0.657-21.312c-3.526-11.346-11.157-18.873-22.241-22.948C128.02,48.715,126.534,48.559,125.106,48.245z
		 M161.189,91.057c-5.107,0.871-7.59,3.79-9.069,7.966c-2.989,8.445-6.122,16.841-9.159,25.27c-0.345,0.963-0.46,2.01-0.683,3.019
		c0.169,0.081,0.336,0.163,0.503,0.247c1.387-0.927,2.805-1.813,4.157-2.792c1.859-1.346,3.396-2.9,4.202-5.192
		c2.775-7.869,5.688-15.692,8.517-23.543C160.215,94.484,160.63,92.885,161.189,91.057z M157.672,111.752
		c0.161,0.086,0.321,0.174,0.479,0.261c4.794-5.804,9.588-11.607,14.476-17.524c-5.215-1.389-8.856,0.478-10.626,5.186
		c-0.657,1.754-1.318,3.507-1.947,5.27C159.245,107.208,158.466,109.482,157.672,111.752z"/>
	<path fill-rule="evenodd" clip-rule="evenodd" fill="#050430" stroke="#B3B3B3" stroke-miterlimit="10" d="M165.31,90.904
		c0.502-2.614-0.111-3.461-2.846-3.286c-2.205,0.143-4.387,0.68-6.509,1.033c0.199-2.352,0.681-4.881,0.58-7.388
		c-0.388-9.611-3.608-18.096-10.285-25.209c-4.802-5.112-10.587-8.548-17.244-10.483c-4.964-1.443-10.072-2.029-15.219-1.084
		c-0.68,0.127-1.732,1.127-1.68,1.626c0.069,0.681,0.944,1.688,1.628,1.831c6.644,1.409,11.956,4.817,15.813,10.375
		c2.456,3.539,3.869,7.502,4.121,11.852c0.302,5.209-0.631,10.072-3.366,14.623c-3.73,6.21-9.09,10.075-16.127,11.437
		c-7.138,1.384-13.858,0.124-19.696-4.391c-4.663-3.61-7.861-8.267-9.11-14.13c-0.094-0.436-0.125-0.957-0.388-1.261
		c-0.491-0.565-1.407-1.518-1.661-1.384c-0.743,0.389-1.714,1.196-1.772,1.906c-0.541,6.631-0.291,13.227,2.716,19.331
		c1.825,3.704,4.039,7.217,6.242,11.108c-14.094,4.89-22.601,16.5-31.451,28.671c-1.893-3.953-3.885-7.44-5.256-11.153
		c-1.599-4.329-3.011-8.791-3.863-13.316c-1.212-6.432-1.199-12.967-0.595-19.524c0.864-9.367,3.631-18.116,8.181-26.261
		c4.064-7.277,9.326-13.619,15.712-19.084c6.764-5.787,14.251-10.261,22.699-12.875c5.06-1.564,10.347-2.596,15.608-3.268
		c11.318-1.446,22.271,0.471,32.766,4.805c13.289,5.484,23.803,14.371,31.721,26.376c5.647,8.554,9.145,17.956,10.503,28.03
		c1.139,8.462,0.769,16.949-1.189,25.367c-2.601,11.19-7.699,21.08-15.174,29.679c-5.624,6.467-12.299,11.764-19.934,15.794
		c-6.701,3.532-13.802,5.905-21.245,7.116c-6.283,1.025-12.65,1.307-18.99,0.437c-9.713-1.328-18.931-4.173-27.269-9.476
		c-0.406-0.259-0.849-1.101-0.716-1.473c1.623-4.556,3.199-9.144,5.188-13.544c0.372-0.823,2.487-1.03,3.839-1.213
		c8.181-1.102,16.369-2.133,24.561-3.151c5.769-0.718,11.577-1.182,17.302-2.157c2.182-0.369,4.296-1.661,6.228-2.871
		c3.404-2.131,6.819-4.315,9.903-6.869c2.533-2.095,4.692-4.676,6.835-7.195c3.464-4.07,6.751-8.289,10.163-12.403
		c3.399-4.102,6.879-8.134,10.284-12.229c1.533-1.839,1.25-2.959-0.968-3.989c-2.813-1.308-5.741-1.479-8.732-0.711
		c-0.313,0.078-0.638,0.122-0.959,0.143C165.547,91.071,165.428,90.962,165.31,90.904z"/>
	<path fill-rule="evenodd" clip-rule="evenodd" fill="#CCCCCC" d="M100.435,115.39c-0.792,0.218-1.574,0.488-2.379,0.644
		c-3.412,0.668-6.827,1.324-10.249,1.936c-1.454,0.26-1.896,1.272-1.507,2.409c0.329,0.963,1.217,1.245,2.421,0.884
		c4.955-1.484,10.058-2.17,15.222-2.096c8.889,0.125,17.502,1.817,25.82,4.974c2.384,0.904,2.93,0.684,3.857-1.833
		c1.996-5.437,3.993-10.871,5.955-16.318c1.199-3.325,3.395-5.614,6.772-6.708c0.581-0.188,1.207-0.224,2.155-0.39
		c-1.417,3.984-2.69,7.62-4,11.241c-2.305,6.376-4.655,12.735-6.942,19.118c-1.143,3.193-2.541,4.168-5.964,4.565
		c-4.577,0.527-9.119,1.321-13.688,1.915c-3.657,0.475-7.34,0.771-11.001,1.238c-3.583,0.458-7.147,1.066-10.729,1.54
		c-3.526,0.465-7.062,0.842-10.594,1.26c-2.249,0.265-4.525,0.411-6.733,0.876c-0.607,0.131-1.353,1.187-1.4,1.861
		c-0.032,0.475,0.958,1.396,1.58,1.48c4.104,0.563,4.107,0.506,2.614,4.354c-0.979,2.525-1.946,5.061-3.056,7.945
		c-2.222-1.735-4.367-3.087-6.104-4.841c-3.496-3.531-6.762-7.293-10.143-10.943c-1.295-1.396-0.376-2.653,0.423-3.632
		c4.683-5.744,9.273-11.583,14.285-17.033c3.71-4.031,8.484-6.83,13.628-8.762c1.265-0.476,3.066-0.402,4.307,0.14
		c1.972,0.862,3.68,2.329,5.5,3.54C100.47,114.965,100.451,115.178,100.435,115.39z"/>
	<path fill-rule="evenodd" clip-rule="evenodd" fill="#E6E6E6" d="M125.106,48.245c1.428,0.314,2.914,0.471,4.273,0.97
		c11.084,4.075,18.714,11.603,22.241,22.948c2.213,7.123,1.834,14.301-0.657,21.312c-0.297,0.835-1.47,1.807-2.337,1.914
		c-6.511,0.815-10.651,4.155-12.583,10.414c-1.086,3.517-2.639,6.761-6.271,8.28c-1.759,0.737-3.668,1.253-5.559,1.524
		c-8.935,1.266-17.271-0.494-24.679-5.684c-7.303-5.116-12-12.13-14.089-20.834c-0.083-0.343,0.034-0.733,0.094-1.669
		c6.793,9.403,15.681,13.637,26.746,12.67c7.68-0.673,13.976-4.424,18.797-10.34c5.194-6.373,7.062-13.847,5.834-21.958
		c-1.212-8.023-5.386-14.323-12.117-18.963C124.903,48.634,125.004,48.44,125.106,48.245z"/>
	<path fill-rule="evenodd" clip-rule="evenodd" fill="#CCCCCC" d="M161.189,91.057c-0.559,1.828-0.974,3.427-1.532,4.974
		c-2.829,7.851-5.742,15.674-8.517,23.543c-0.806,2.292-2.343,3.847-4.202,5.192c-1.352,0.979-2.77,1.865-4.157,2.792
		c-0.167-0.084-0.334-0.166-0.503-0.247c0.223-1.009,0.338-2.056,0.683-3.019c3.037-8.429,6.17-16.824,9.159-25.27
		C153.599,94.847,156.082,91.928,161.189,91.057z"/>
	<path fill-rule="evenodd" clip-rule="evenodd" fill="#CCCCCC" d="M157.672,111.752c0.793-2.271,1.572-4.545,2.382-6.809
		c0.629-1.763,1.29-3.516,1.947-5.27c1.77-4.708,5.411-6.574,10.626-5.186c-4.888,5.917-9.682,11.721-14.476,17.524
		C157.993,111.926,157.833,111.838,157.672,111.752z"/>
</g>
<text transform="matrix(1.0019 0 0 1 203.5527 156.2852)" font-family="'CinzelDecorative-Regular'" font-size="154.85">zelene</text>
</svg>
